<svg xmlns="http://www.w3.org/2000/svg" version="1.1" xmlns:xlink="http://www.w3.org/1999/xlink" xmlns:svgjs="http://svgjs.com/svgjs" height="252.90495605468752" width="238.70361328125"><defs id="SvgjsDefs1901"></defs><g id="SvgjsG1902" transform="translate(0.018173089250922203,0.01558705884963274) scale(1.6)" rel="inversefill" name="filled_container" xmlns:name="filledContainer_inversefill" fill="#474747"><defs><style>.opacity_08{opacity:0.8;}</style></defs><title>template-3</title><g id="Слой_2" data-name="Слой 2" fill="#474747"><g id="Layer_1" data-name="Layer 1" fill="#474747"><g class="opacity_08" fill="#474747"><path class="opacity_08" d="M149.12,51.33a128.62,128.62,0,0,0-.62-16.77c-1.32-11.79-6.27-22.4-17.63-26.45a128.16,128.16,0,0,0-15-4.22A176.7,176.7,0,0,0,82.35.07a169.25,169.25,0,0,0-31.87,2C41.54,3.54,33.17,6.57,26.77,13.52c-3.37,3.66-5.48,8.19-7.23,12.86a110.15,110.15,0,0,0-4.88,18c-2.37,12.29-3.11,24.87-3.56,37.35-.33,8.8-.44,17.62.08,26.4.18,3.12.38,6.39.76,9.67.88,7.54,2.73,15.08,7.57,20.71,9.86,11.48,30.18,7.35,42.7,4.45,4.53-1,9.05-2.14,13.59-3.17,6.33-1.43,12.66-2.88,19-4.3-3,7.08-5.94,14.17-7,21.88a1.06,1.06,0,0,0,.06.55c4.11-3.65,31.53-27.09,32.3-27.85,5.5-1.16,11.09-2.67,15.36-6.54,3.81-3.45,6.09-8.3,7.58-13.23,3.52-11.6,4.24-23.82,5.19-35.86C149,66.74,149.27,59,149.12,51.33Z" fill="#474747" style="fill: rgb(71, 71, 71);"></path></g><path d="M141.74,51.47a120.43,120.43,0,0,0-1.85-16c-2.18-11.21-7.89-21-19.52-24.13a133.82,133.82,0,0,0-15.25-3A183.7,183.7,0,0,0,71.39,7a175.49,175.49,0,0,0-31.63,4.18C31,13.21,22.82,16.7,17,23.82c-3.09,3.76-4.87,8.25-6.27,12.85A102.53,102.53,0,0,0,7.13,54.28c-1.47,12-1.28,24.08-.82,36.09.33,8.46.86,16.93,2,25.32.41,3,.85,6.11,1.47,9.23,1.43,7.17,3.83,14.27,9.06,19.33,10.68,10.32,30.65,4.93,42.91,1.26,4.45-1.33,8.88-2.69,13.33-4,6.2-1.82,12.41-3.66,18.63-5.47-2.45,7-4.88,14-5.33,21.49a1,1,0,0,0,.1.52c3.84-3.79,29.46-28.21,30.18-29,5.39-1.49,10.86-3.35,14.84-7.36,3.55-3.57,5.46-8.39,6.59-13.22,2.65-11.38,2.48-23.16,2.54-34.77A219.61,219.61,0,0,0,141.74,51.47Z" fill="#474747" style="fill: rgb(71, 71, 71);"></path><g class="opacity_08" fill="#474747"><path class="opacity_08" d="M135.26,37a102.49,102.49,0,0,0-3.57-14.49c-3.39-10-10.2-18.36-22.24-19.82a143.58,143.58,0,0,0-15.67-.95,204.08,204.08,0,0,0-34.1,2.76,195.49,195.49,0,0,0-31.41,7.54C19.62,15,11.8,19.13,6.65,26.34c-2.71,3.8-4,8.13-4.94,12.51A87.1,87.1,0,0,0,0,55.4c-.2,11.13,1.28,22.22,3,33.17a214.08,214.08,0,0,0,4.73,23c.73,2.68,1.51,5.5,2.46,8.28,2.21,6.41,5.38,12.64,11.2,16.66,11.85,8.2,31.38.92,43.34-3.88,4.33-1.74,8.65-3.51,13-5.23,6-2.39,12.11-4.81,18.18-7.19-1.72,6.7-3.42,13.41-3.07,20.31A.82.82,0,0,0,93,141c3.46-3.92,26.65-29.31,27.29-30.12,5.27-2,10.58-4.34,14.16-8.48,3.19-3.7,4.6-8.33,5.22-12.89,1.46-10.75,0-21.52-1.15-32.17A181.91,181.91,0,0,0,135.26,37Z" fill="#474747" style="fill: rgb(71, 71, 71);"></path></g></g></g></g><g id="SvgjsG1903" rel="mainfill" name="main_text" xmlns:name="main_text" fill="#ffffff" transform="translate(27.996809005737305,-75.12752380371093)"><path d="M47.28 241.09C57.17 241.09 63.59 240.11 70.98 237.39L67.07 223.48C61.20 225 56.74 225.65 49.24 225.65C33.70 225.65 23.48 217.07 23.48 200.98C23.48 184.89 33.15 177.07 47.07 177.28C55.54 177.39 58.59 178.15 65.87 180.11L70.76 166.74C65.00 164.13 58.26 162.07 46.85 162.07C18.91 162.07 4.67 175.33 4.67 202.07C4.67 227.28 19.13 241.09 47.28 241.09ZM83.04 240L101.52 240L101.52 163.15L83.04 163.15ZM118.48 240L137.07 240L137.07 218.26L142.72 218.26C165.65 218.26 178.04 205.54 178.04 190.43C178.04 173.26 165.65 163.15 148.37 163.15L118.48 163.15ZM137.07 177.61L145.98 177.61C155.87 177.61 159.02 183.15 159.02 190.87C159.02 198.04 154.89 204.02 143.37 204.02L137.07 204.02Z" fill="#ffffff" style="fill: rgb(255, 255, 255);"></path></g></svg>