<svg xmlns="http://www.w3.org/2000/svg" version="1.1" xmlns:xlink="http://www.w3.org/1999/xlink" xmlns:svgjs="http://svgjs.com/svgjs" height="132.87000274658203" width="248.97999572753906"><defs id="SvgjsDefs6265"></defs><g id="SvgjsG6266" rel="mainfill" name="main_text" xmlns:name="main_text" transform="translate(-9.800000190734863,-117.4000015258789)" fill="#222222"><path d="M101.66 225.30C95.01 227.58 80.83 232.30 66.66 232.30C41.29 232.30 22.75 228.63 22.75 183.84C22.75 139.39 41.29 135.37 66.66 135.37C80.83 135.37 93.26 139.39 99.91 141.67L105.68 132.40C96.06 127.85 82.58 125.40 66.31 125.40C32.02 125.40 9.80 134.32 9.80 183.84C9.80 233.35 32.02 242.27 66.31 242.27C82.58 242.27 97.81 239.13 107.43 234.58ZM140.15 240L140.15 127.67L127.55 127.67L127.55 240ZM182.31 240L182.31 199.58L215.03 199.58C248.28 199.58 258.78 194.51 258.78 163.71C258.78 132.92 248.28 127.67 215.03 127.67L169.72 127.67L169.72 240ZM245.65 164.24C245.65 188.73 237.43 189.61 215.38 189.61L182.31 189.61L182.31 137.64L215.38 137.64C237.43 137.64 245.65 138.69 245.65 163.19Z" fill="#222222" style="fill: rgb(34, 34, 34);"></path></g></svg>